<svg width="40" height="40" viewBox="0 0 40 40" fill="none" xmlns="http://www.w3.org/2000/svg">
  <!-- Outer Circle Border -->
  <circle cx="20" cy="20" r="19" stroke="#4A90E2" stroke-width="1.5" fill="none"/>
  
  <!-- Central Flowing Path -->
  <path d="M8 22 C12 8, 28 8, 32 22 S28 34, 20 32 S12 34, 8 22" 
        stroke="#4A90E2" stroke-width="2" fill="none"/>
        
  <!-- Accent Flow Lines for Dynamic Effect -->
  <path d="M12 18 C15 10, 25 10, 28 18 S25 28, 20 27 S15 28, 12 18" 
        stroke="#6AAEF2" stroke-width="1" fill="none"/>
  <path d="M15 24 C17 14, 23 14, 25 24 S23 30, 20 29 S17 30, 15 24" 
        stroke="#4A90E2" stroke-width="1" fill="none"/>

  <!-- Flow Dots for Continuity -->
  <circle cx="8" cy="22" r="1.5" fill="#4A90E2"/>
  <circle cx="20" cy="32" r="1.5" fill="#4A90E2"/>
  <circle cx="32" cy="22" r="1.5" fill="#4A90E2"/>
</svg>
